<svg width="88" height="50" viewBox="0 0 88 50" fill="none" xmlns="http://www.w3.org/2000/svg">
<g filter="url(#filter0_d)">
<rect x="4" width="80" height="42" rx="10" fill="#3D52F8"/>
</g>
<path d="M37.293 23.165C37.1436 24.4434 36.6704 25.4312 35.8735 26.1284C35.0822 26.8201 34.028 27.166 32.7109 27.166C31.2832 27.166 30.1377 26.6541 29.2744 25.6304C28.4167 24.6066 27.9878 23.237 27.9878 21.5215V20.3594C27.9878 19.236 28.187 18.2482 28.5854 17.396C28.9894 16.5438 29.5594 15.8908 30.2954 15.437C31.0314 14.9777 31.8836 14.748 32.8521 14.748C34.1359 14.748 35.1652 15.1077 35.9399 15.8271C36.7147 16.541 37.1657 17.5316 37.293 18.7988H35.6909C35.5526 17.8359 35.251 17.1387 34.7861 16.707C34.3268 16.2754 33.6821 16.0596 32.8521 16.0596C31.8338 16.0596 31.0342 16.4359 30.4531 17.1885C29.8776 17.9411 29.5898 19.0119 29.5898 20.4009V21.5713C29.5898 22.8828 29.8638 23.9259 30.4116 24.7007C30.9595 25.4754 31.7259 25.8628 32.7109 25.8628C33.5964 25.8628 34.2743 25.6636 34.7446 25.2651C35.2205 24.8612 35.536 24.1611 35.6909 23.165H37.293ZM44.7803 27C44.6917 26.8229 44.6198 26.5075 44.5645 26.0537C43.8506 26.7952 42.9984 27.166 42.0078 27.166C41.1224 27.166 40.3947 26.917 39.8247 26.4189C39.2603 25.9154 38.978 25.279 38.978 24.5098C38.978 23.5745 39.3322 22.8496 40.0405 22.335C40.7544 21.8148 41.756 21.5547 43.0454 21.5547H44.5396V20.8491C44.5396 20.3123 44.3791 19.8862 44.0581 19.5708C43.7371 19.2498 43.264 19.0894 42.6387 19.0894C42.0908 19.0894 41.6315 19.2277 41.2607 19.5044C40.89 19.7811 40.7046 20.1159 40.7046 20.5088H39.1606C39.1606 20.0605 39.3184 19.6289 39.6338 19.2139C39.9548 18.7933 40.3864 18.4613 40.9287 18.2178C41.4766 17.9743 42.077 17.8525 42.73 17.8525C43.7648 17.8525 44.5755 18.1126 45.1621 18.6328C45.7487 19.1475 46.0531 19.8586 46.0752 20.7661V24.8999C46.0752 25.7244 46.1803 26.3802 46.3906 26.8672V27H44.7803ZM42.2319 25.8296C42.7134 25.8296 43.1699 25.7051 43.6016 25.4561C44.0332 25.207 44.3459 24.8833 44.5396 24.4849V22.6421H43.3359C41.4544 22.6421 40.5137 23.1927 40.5137 24.2939C40.5137 24.7754 40.6742 25.1517 40.9951 25.4229C41.3161 25.694 41.7284 25.8296 42.2319 25.8296ZM52.8237 19.3965C52.5913 19.3577 52.3395 19.3384 52.0684 19.3384C51.0612 19.3384 50.3778 19.7673 50.0181 20.625V27H48.4824V18.0186H49.9766L50.0015 19.0562C50.505 18.2537 51.2189 17.8525 52.1431 17.8525C52.4419 17.8525 52.6688 17.8913 52.8237 17.9688V19.3965ZM56.7417 15.8438V18.0186H58.4185V19.2056H56.7417V24.7754C56.7417 25.1351 56.8164 25.4062 56.9658 25.5889C57.1152 25.766 57.3698 25.8545 57.7295 25.8545C57.9066 25.8545 58.1501 25.8213 58.46 25.7549V27C58.056 27.1107 57.6631 27.166 57.2812 27.166C56.5951 27.166 56.0776 26.9585 55.729 26.5435C55.3804 26.1284 55.2061 25.5391 55.2061 24.7754V19.2056H53.5708V18.0186H55.2061V15.8438H56.7417Z" fill="white"/>
<defs>
<filter id="filter0_d" x="0" y="0" width="88" height="50" filterUnits="userSpaceOnUse" color-interpolation-filters="sRGB">
<feFlood flood-opacity="0" result="BackgroundImageFix"/>
<feColorMatrix in="SourceAlpha" type="matrix" values="0 0 0 0 0 0 0 0 0 0 0 0 0 0 0 0 0 0 127 0" result="hardAlpha"/>
<feOffset dy="4"/>
<feGaussianBlur stdDeviation="2"/>
<feComposite in2="hardAlpha" operator="out"/>
<feColorMatrix type="matrix" values="0 0 0 0 0.239216 0 0 0 0 0.321569 0 0 0 0 0.972549 0 0 0 0.25 0"/>
<feBlend mode="normal" in2="BackgroundImageFix" result="effect1_dropShadow"/>
<feBlend mode="normal" in="SourceGraphic" in2="effect1_dropShadow" result="shape"/>
</filter>
</defs>
</svg>
