<svg width="88" height="50" viewBox="0 0 88 50" fill="none" xmlns="http://www.w3.org/2000/svg">
<g filter="url(#filter0_d)">
<rect x="4" width="80" height="42" rx="10" fill="#FCC400"/>
</g>
<path d="M36.7148 22.2627C36.5303 23.8418 35.9458 25.062 34.9614 25.9233C33.9839 26.7778 32.6816 27.2051 31.0547 27.2051C29.291 27.2051 27.876 26.5728 26.8096 25.3081C25.75 24.0435 25.2202 22.3516 25.2202 20.2324V18.7969C25.2202 17.4092 25.4663 16.189 25.9585 15.1362C26.4575 14.0835 27.1616 13.2769 28.0708 12.7163C28.98 12.1489 30.0327 11.8652 31.229 11.8652C32.8149 11.8652 34.0864 12.3096 35.0435 13.1982C36.0005 14.0801 36.5576 15.3037 36.7148 16.8691H34.7358C34.5649 15.6797 34.1924 14.8184 33.6182 14.2852C33.0508 13.752 32.2544 13.4854 31.229 13.4854C29.9712 13.4854 28.9834 13.9502 28.2656 14.8799C27.5547 15.8096 27.1992 17.1323 27.1992 18.8481V20.2939C27.1992 21.9141 27.5376 23.2026 28.2144 24.1597C28.8911 25.1167 29.8379 25.5952 31.0547 25.5952C32.1484 25.5952 32.9858 25.3491 33.5669 24.8569C34.1548 24.3579 34.5444 23.4932 34.7358 22.2627H36.7148ZM45.9639 27C45.8545 26.7812 45.7656 26.3916 45.6973 25.8311C44.8154 26.7471 43.7627 27.2051 42.5391 27.2051C41.4453 27.2051 40.5464 26.8975 39.8423 26.2822C39.145 25.6602 38.7964 24.874 38.7964 23.9238C38.7964 22.7686 39.2339 21.873 40.1089 21.2373C40.9907 20.5947 42.228 20.2734 43.8208 20.2734H45.6665V19.4019C45.6665 18.7388 45.4683 18.2124 45.0718 17.8228C44.6753 17.4263 44.0908 17.228 43.3184 17.228C42.6416 17.228 42.0742 17.3989 41.6162 17.7407C41.1582 18.0825 40.9292 18.4961 40.9292 18.9814H39.022C39.022 18.4277 39.2168 17.8945 39.6064 17.3818C40.0029 16.8623 40.5361 16.4521 41.2061 16.1514C41.8828 15.8506 42.6245 15.7002 43.4312 15.7002C44.7095 15.7002 45.7109 16.0215 46.4355 16.6641C47.1602 17.2998 47.5361 18.1782 47.5635 19.2993V24.4058C47.5635 25.4243 47.6934 26.2344 47.9531 26.8359V27H45.9639ZM42.8159 25.5542C43.4106 25.5542 43.9746 25.4004 44.5078 25.0928C45.041 24.7852 45.4272 24.3853 45.6665 23.8931V21.6167H44.1797C41.8555 21.6167 40.6934 22.2969 40.6934 23.6572C40.6934 24.252 40.8916 24.7168 41.2881 25.0518C41.6846 25.3867 42.1938 25.5542 42.8159 25.5542ZM55.8999 17.6074C55.6128 17.5596 55.3018 17.5356 54.9668 17.5356C53.7227 17.5356 52.8784 18.0654 52.4341 19.125V27H50.5371V15.9053H52.3828L52.4136 17.187C53.0356 16.1958 53.9175 15.7002 55.0591 15.7002C55.4282 15.7002 55.7085 15.748 55.8999 15.8438V17.6074ZM60.7397 13.2188V15.9053H62.811V17.3716H60.7397V24.252C60.7397 24.6963 60.832 25.0312 61.0166 25.2568C61.2012 25.4756 61.5156 25.585 61.96 25.585C62.1787 25.585 62.4795 25.5439 62.8623 25.4619V27C62.3633 27.1367 61.8779 27.2051 61.4062 27.2051C60.5586 27.2051 59.9194 26.9487 59.4888 26.436C59.0581 25.9233 58.8428 25.1953 58.8428 24.252V17.3716H56.8228V15.9053H58.8428V13.2188H60.7397Z" fill="white"/>
<defs>
<filter id="filter0_d" x="0" y="0" width="88" height="50" filterUnits="userSpaceOnUse" color-interpolation-filters="sRGB">
<feFlood flood-opacity="0" result="BackgroundImageFix"/>
<feColorMatrix in="SourceAlpha" type="matrix" values="0 0 0 0 0 0 0 0 0 0 0 0 0 0 0 0 0 0 127 0" result="hardAlpha"/>
<feOffset dy="4"/>
<feGaussianBlur stdDeviation="2"/>
<feComposite in2="hardAlpha" operator="out"/>
<feColorMatrix type="matrix" values="0 0 0 0 0.996078 0 0 0 0 0.145098 0 0 0 0 0.117647 0 0 0 0.25 0"/>
<feBlend mode="normal" in2="BackgroundImageFix" result="effect1_dropShadow"/>
<feBlend mode="normal" in="SourceGraphic" in2="effect1_dropShadow" result="shape"/>
</filter>
</defs>
</svg>
