<svg width="75" height="66" viewBox="0 0 75 66" fill="none" xmlns="http://www.w3.org/2000/svg">
<path d="M56.7683 19.4555L51.207 20.0412L53.6344 8.18194C53.8524 7.11335 54.3561 6.12389 55.0919 5.31893C55.8278 4.51398 56.7682 3.92369 57.8129 3.61092L68.9778 0.253602C71.1939 -0.410616 73.4281 1.24389 73.4281 3.56261C73.4281 5.74245 71.2603 7.26412 69.2133 6.5214L67.6615 6.17118L61.4058 8.02495C60.7974 8.20599 60.2471 8.54317 59.8096 9.00295C59.3721 9.46272 59.0626 10.0291 58.9119 10.6456L56.7683 19.4555Z" fill="#65878D"/>
<path d="M51.0017 44.6294L47.1311 61.0839L42.4272 59.4233L45.3257 44.6294H51.0017Z" fill="#65878D"/>
<path d="M48.2663 56.2532H10.2731V61.2831H47.4089L48.2663 56.2532Z" fill="#65878D"/>
<path d="M0.0743321 23.6945L4.54874 45.5049C4.89293 47.1957 6.37836 48.4034 8.09929 48.4034H49.474C49.7472 48.4035 50.0124 48.3111 50.2262 48.1411C50.4401 47.9711 50.59 47.7336 50.6515 47.4674L57.9096 16.062C58.0968 15.2589 57.4446 14.5162 56.6234 14.5886L3.29881 19.3589C2.79064 19.4042 2.29778 19.5564 1.85254 19.8055C1.4073 20.0546 1.01975 20.3949 0.715282 20.8043C0.410819 21.2137 0.196325 21.6828 0.0858652 22.1809C-0.0245943 22.679 -0.0285246 23.1948 0.0743321 23.6945V23.6945ZM8.49782 24.3526L11.0702 24.1232C11.3209 24.1006 11.5735 24.1305 11.812 24.211C12.0505 24.2915 12.2696 24.4208 12.4554 24.5907C12.6412 24.7605 12.7895 24.9672 12.891 25.1976C12.9924 25.428 13.0448 25.6769 13.0447 25.9286V28.8391C13.0447 29.8415 12.2356 30.6506 11.2332 30.6506H8.52801C7.67057 30.6506 6.92785 30.0468 6.75274 29.2014L6.35421 27.245C6.28377 26.912 6.28483 26.5679 6.35733 26.2354C6.42982 25.9029 6.57209 25.5896 6.77473 25.3161C6.97737 25.0427 7.23576 24.8154 7.5328 24.6493C7.82985 24.4832 8.15877 24.3821 8.49782 24.3526V24.3526ZM31.5703 35.4753H35.0001C36.0025 35.4753 36.8116 36.2844 36.8116 37.2868V41.1573C36.8116 42.1597 36.0025 42.9688 35.0001 42.9688H31.5703C30.568 42.9688 29.7588 42.1597 29.7588 41.1573V37.2868C29.7588 36.2844 30.568 35.4753 31.5703 35.4753ZM35.0001 30.6446H31.5703C30.568 30.6446 29.7588 29.8355 29.7588 28.8331V24.1051C29.7588 23.1691 30.4774 22.3841 31.4073 22.2996L34.8371 21.9916C35.0878 21.9691 35.3404 21.999 35.5789 22.0795C35.8174 22.16 36.0365 22.2893 36.2223 22.4591C36.4081 22.629 36.5564 22.8357 36.6579 23.0661C36.7593 23.2964 36.8117 23.5454 36.8116 23.7971V28.8331C36.8116 29.8355 36.0025 30.6446 35.0001 30.6446ZM24.9281 37.2868V41.1573C24.9281 42.1597 24.119 42.9688 23.1166 42.9688H19.6869C18.6845 42.9688 17.8754 42.1597 17.8754 41.1573V37.2868C17.8754 36.2844 18.6845 35.4753 19.6869 35.4753H23.1166C24.119 35.4753 24.9281 36.2844 24.9281 37.2868ZM23.1166 30.6446H19.6869C18.6845 30.6446 17.8754 29.8355 17.8754 28.8331V25.1678C17.8754 24.2319 18.5939 23.4469 19.5238 23.3623L22.9536 23.0544C23.2043 23.0318 23.457 23.0617 23.6955 23.1422C23.934 23.2227 24.1531 23.352 24.3389 23.5219C24.5246 23.6917 24.673 23.8984 24.7744 24.1288C24.8759 24.3592 24.9282 24.6081 24.9281 24.8599V28.8331C24.9281 29.8355 24.119 30.6446 23.1166 30.6446ZM50.736 22.9517L49.2808 29.2377C49.1886 29.6361 48.9641 29.9916 48.6438 30.246C48.3236 30.5005 47.9266 30.6388 47.5176 30.6386H43.4538C42.4514 30.6386 41.6423 29.8294 41.6423 28.8271V23.0423C41.6423 22.1064 42.3608 21.3214 43.2907 21.2369L48.8038 20.7417C50.0356 20.633 51.0138 21.7561 50.736 22.9517V22.9517ZM44.1905 42.9688H42.856C42.1918 42.9688 41.6483 42.4254 41.6483 41.7612V37.2868C41.6483 36.2844 42.4575 35.4753 43.4598 35.4753H45.5672C46.7326 35.4753 47.5961 36.5622 47.3304 37.6974L46.5454 41.103C46.4203 41.6337 46.1197 42.1067 45.6923 42.4453C45.2649 42.784 44.7357 42.9684 44.1905 42.9688V42.9688ZM8.40724 37.2686C8.21402 36.3387 8.92654 35.4692 9.87456 35.4692H11.2332C12.2356 35.4692 13.0447 36.2784 13.0447 37.2807V41.4653C13.0447 41.662 13.006 41.8567 12.9307 42.0384C12.8554 42.2201 12.7451 42.3851 12.6061 42.5242C12.467 42.6633 12.3019 42.7736 12.1203 42.8488C11.9386 42.9241 11.7438 42.9628 11.5472 42.9628C10.3999 42.9628 9.40961 42.1537 9.18015 41.0305L8.40724 37.2686V37.2686Z" fill="#FAC136"/>
<path d="M44.5105 65.51C48.1789 65.51 51.1527 62.5362 51.1527 58.8678C51.1527 55.1994 48.1789 52.2256 44.5105 52.2256C40.8421 52.2256 37.8683 55.1994 37.8683 58.8678C37.8683 62.5362 40.8421 65.51 44.5105 65.51Z" fill="#2F2F2F"/>
<path d="M44.5105 61.9655C46.2213 61.9655 47.6081 60.5786 47.6081 58.8678C47.6081 57.157 46.2213 55.7701 44.5105 55.7701C42.7997 55.7701 41.4128 57.157 41.4128 58.8678C41.4128 60.5786 42.7997 61.9655 44.5105 61.9655Z" fill="#65878D"/>
<path d="M12.6039 65.51C16.2723 65.51 19.2461 62.5362 19.2461 58.8678C19.2461 55.1994 16.2723 52.2256 12.6039 52.2256C8.93552 52.2256 5.96172 55.1994 5.96172 58.8678C5.96172 62.5362 8.93552 65.51 12.6039 65.51Z" fill="#2F2F2F"/>
<path d="M12.6039 61.9655C14.3147 61.9655 15.7016 60.5786 15.7016 58.8678C15.7016 57.157 14.3147 55.7701 12.6039 55.7701C10.8931 55.7701 9.50623 57.157 9.50623 58.8678C9.50623 60.5786 10.8931 61.9655 12.6039 61.9655Z" fill="#65878D"/>
<path d="M70.5055 8.94882C72.9767 8.94882 74.9799 6.94556 74.9799 4.47441C74.9799 2.00326 72.9767 0 70.5055 0C68.0344 0 66.0311 2.00326 66.0311 4.47441C66.0311 6.94556 68.0344 8.94882 70.5055 8.94882Z" fill="#65878D"/>
</svg>
